<?xml version="1.0" encoding="iso-8859-1"?>
<!-- Generator: Adobe Illustrator 19.0.0, SVG Export Plug-In . SVG Version: 6.00 Build 0)  -->
<svg version="1.1" id="Layer_1" xmlns="http://www.w3.org/2000/svg" xmlns:xlink="http://www.w3.org/1999/xlink" x="0px" y="0px"
	 viewBox="0 0 262.787 262.787" style="enable-background:new 0 0 262.787 262.787;" xml:space="preserve">
<g>
	<g>
		<g>
			<path d="M99.965,41.628C72.107,48.791,52.65,73.908,52.65,102.71c0,2.761,2.238,5,5,5c2.762,0,5-2.239,5-5
				c0-24.236,16.369-45.371,39.806-51.397c2.675-0.688,4.285-3.413,3.598-6.087C105.365,42.551,102.642,40.939,99.965,41.628z"/>
			<path d="M150.63,229.807H80.81c-3.588,0-6.006,3.675-4.597,6.968c14.84,34.659,64.154,34.705,79.014,0
				C156.638,233.478,154.213,229.807,150.63,229.807z M89.455,239.807h52.529C128.821,257.162,102.628,257.175,89.455,239.807z"/>
			<path d="M239.18,163c0-23.754-17.393-43.316-40.39-46.478V102.71c0-36.566-23.846-68.64-58.467-79.356
				C139.624,10.295,128.857,0,115.72,0c-13.123,0-23.904,10.281-24.604,23.351c-34.622,10.7-58.467,42.774-58.467,79.359v82.212
				l-8.875,33.684c-0.835,3.167,1.558,6.274,4.835,6.274H202.83c3.276,0,5.671-3.106,4.835-6.274l-2.741-10.399
				C225.066,202.633,239.18,184.423,239.18,163z M35.097,214.88c7.897-29.975,7.552-28.31,7.552-29.31v-82.86
				c0-33.367,22.545-62.467,54.825-70.767c2.434-0.626,4.024-2.96,3.718-5.454C100.078,17.453,107.165,10,115.72,10
				c8.547,0,15.642,7.445,14.527,16.489c-0.307,2.493,1.283,4.827,3.716,5.453c32.281,8.317,54.827,37.418,54.827,70.768v13.485
				c-24.711,1.804-43.49,22.553-43.49,46.805c0,26.648,22.35,48.271,49.416,46.868c0.101-0.005,0.201-0.003,0.302-0.009l1.323,5.021
				H35.097z M192.239,199.94c-20.368,0-36.939-16.571-36.939-36.94c0-21.059,17.625-37.714,38.309-36.903
				c19.946,0.72,35.57,16.93,35.57,36.903C229.18,183.571,212.746,199.94,192.239,199.94z"/>
			<path d="M208.774,149.881l-16.45,15.643l-9.071-9.058c-1.956-1.952-5.121-1.949-7.071,0.005c-1.951,1.954-1.949,5.12,0.005,7.071
				l12.52,12.5c1.922,1.918,5.017,1.951,6.979,0.086l19.98-19c2.001-1.903,2.081-5.068,0.178-7.069
				C213.941,148.059,210.776,147.979,208.774,149.881z"/>
		</g>
	</g>
</g>
<g>
</g>
<g>
</g>
<g>
</g>
<g>
</g>
<g>
</g>
<g>
</g>
<g>
</g>
<g>
</g>
<g>
</g>
<g>
</g>
<g>
</g>
<g>
</g>
<g>
</g>
<g>
</g>
<g>
</g>
</svg>
