<?xml version="1.0" encoding="iso-8859-1"?>
<!-- Generator: Adobe Illustrator 17.1.0, SVG Export Plug-In . SVG Version: 6.00 Build 0)  -->
<!DOCTYPE svg PUBLIC "-//W3C//DTD SVG 1.1//EN" "http://www.w3.org/Graphics/SVG/1.1/DTD/svg11.dtd">
<svg version="1.1" id="Capa_1" xmlns="http://www.w3.org/2000/svg" xmlns:xlink="http://www.w3.org/1999/xlink" x="0px" y="0px"
	 viewBox="0 0 284 284" style="enable-background:new 0 0 284 284;" xml:space="preserve">
<g>
	<path d="M223.605,149.618l-49.706-15.915c0.043-0.016,0.086-0.032,0.129-0.048c24.207-9.129,37.71-19.348,41.28-31.24
		c1.779-5.928,1.9-15.05-7.623-24.84c-5.314-5.462-16.639-13.334-17.113-13.664c-1.5-1.042-3.257-1.593-5.08-1.593
		c-2.863,0-5.57,1.388-7.237,3.707l-30.495,42.357c-1.022-21.893-5.287-37.11-12.709-45.301c-4.534-5.002-10.338-7.646-16.781-7.646
		c-4.253,0-8.779,1.167-13.453,3.468c-5.157,2.541-12.559,7.815-16.517,10.735c-1.013,0.75-1.664,1.243-1.765,1.32
		c-2.328,1.77-3.641,4.571-3.512,7.504c0.081,1.759,0.675,3.44,1.718,4.863l30.845,42.069c-11.86-3.262-22.085-4.911-30.488-4.911
		c-11.215,0-19.525,3.03-24.698,9.004c-4.681,5.397-6.405,12.624-5.128,21.479c1.093,7.557,5.625,20.564,5.815,21.109
		c1.247,3.576,4.629,5.98,8.416,5.98c0.956,0,1.9-0.153,2.79-0.449l49.568-16.343c-0.025,0.038-0.05,0.075-0.074,0.113
		c-14.22,21.614-19.139,37.818-15.035,49.538c2.047,5.843,7.313,13.296,20.771,15.617c3.962,0.683,10.002,1.029,17.952,1.029
		c2.352,0,3.921-0.034,3.918-0.034c4.83-0.102,8.743-4.116,8.724-8.949l-0.224-52.19c15.976,19.998,29.724,29.718,42.028,29.718
		c5.201,0,14.947-1.94,21.789-14.933c3.581-6.798,7.545-19.943,7.709-20.491C230.817,156.056,228.209,151.092,223.605,149.618z"/>
	<path d="M284,33.5c0-10.493-8.507-19-19-19H19c-10.493,0-19,8.507-19,19v217c0,10.493,8.507,19,19,19h246c10.493,0,19-8.507,19-19
		V33.5z M30.938,28.496c7.336,0,13.283,5.947,13.283,13.283c0,7.336-5.947,13.283-13.283,13.283
		c-7.336,0-13.282-5.947-13.282-13.283C17.655,34.442,23.602,28.496,30.938,28.496z M30.938,254.504
		c-7.336,0-13.282-5.947-13.282-13.283c0-7.336,5.947-13.283,13.282-13.283c7.336,0,13.283,5.947,13.283,13.283
		C44.22,248.558,38.273,254.504,30.938,254.504z M142.333,247.767c-58.689,0-106.266-47.577-106.266-106.267
		S83.644,35.233,142.333,35.233c58.689,0,106.266,47.577,106.266,106.267S201.023,247.767,142.333,247.767z M253.729,254.504
		c-7.336,0-13.283-5.947-13.283-13.283c0-7.336,5.947-13.283,13.283-13.283c7.336,0,13.282,5.947,13.282,13.283
		C267.012,248.558,261.065,254.504,253.729,254.504z M253.729,55.061c-7.336,0-13.283-5.947-13.283-13.283
		c0-7.336,5.947-13.283,13.283-13.283c7.336,0,13.282,5.947,13.282,13.283C267.012,49.114,261.065,55.061,253.729,55.061z"/>
</g>
<g>
</g>
<g>
</g>
<g>
</g>
<g>
</g>
<g>
</g>
<g>
</g>
<g>
</g>
<g>
</g>
<g>
</g>
<g>
</g>
<g>
</g>
<g>
</g>
<g>
</g>
<g>
</g>
<g>
</g>
</svg>
