<?xml version="1.0" encoding="iso-8859-1"?>
<!-- Generator: Adobe Illustrator 17.1.0, SVG Export Plug-In . SVG Version: 6.00 Build 0)  -->
<!DOCTYPE svg PUBLIC "-//W3C//DTD SVG 1.1//EN" "http://www.w3.org/Graphics/SVG/1.1/DTD/svg11.dtd">
<svg version="1.1" id="Capa_1" xmlns="http://www.w3.org/2000/svg" xmlns:xlink="http://www.w3.org/1999/xlink" x="0px" y="0px"
	 viewBox="0 0 269 269" style="enable-background:new 0 0 269 269;" xml:space="preserve">
<g>
	<path d="M269,33c0-10.493-8.507-19-19-19H19C8.507,14,0,22.507,0,33v203c0,10.493,8.507,19,19,19h231c10.493,0,19-8.507,19-19V33z
		 M220.171,198.788l-7.977,7.977c-16.926,16.926-38.576,22.718-55.502,5.792l-59.434-59.434
		c-16.926-16.926-8.236-41.473,8.69-58.399l2.182-2.182c16.926-16.926,41.473-25.616,58.399-8.69l59.434,59.434
		C242.889,160.212,237.097,181.861,220.171,198.788z"/>
	<path d="M137.97,107.58c-5.09-5.09-13.342-5.09-18.431,0c-5.09,5.09-5.09,13.342,0,18.431l17.115,17.115
		c5.09,5.09,13.342,5.09,18.431,0c5.09-5.09,5.09-13.342,0-18.431L137.97,107.58z"/>
</g>
<g>
</g>
<g>
</g>
<g>
</g>
<g>
</g>
<g>
</g>
<g>
</g>
<g>
</g>
<g>
</g>
<g>
</g>
<g>
</g>
<g>
</g>
<g>
</g>
<g>
</g>
<g>
</g>
<g>
</g>
</svg>
