<?xml version="1.0" encoding="iso-8859-1"?>
<!-- Generator: Adobe Illustrator 19.0.0, SVG Export Plug-In . SVG Version: 6.00 Build 0)  -->
<svg version="1.1" id="Layer_1" xmlns="http://www.w3.org/2000/svg" xmlns:xlink="http://www.w3.org/1999/xlink" x="0px" y="0px"
	 viewBox="0 0 275.39 275.39" style="enable-background:new 0 0 275.39 275.39;" xml:space="preserve">
<g>
	<g>
		<g>
			<path d="M246.695,0h-218c-8.271,0-15,6.729-15,15c0,11.566,0,233.786,0,245.39c0,8.271,6.728,15,15,15h218
				c8.271,0,15-6.729,15-15c0-11.607,0-233.83,0-245.39C261.695,6.729,254.966,0,246.695,0z M251.695,260.39c0,2.757-2.243,5-5,5
				h-218c-2.757,0-5-2.243-5-5V59.6h228V260.39z M251.695,49.6h-228V15c0-2.757,2.243-5,5-5h218c2.757,0,5,2.243,5,5V49.6z"/>
			<path d="M129.695,143.495h92c2.762,0,5-2.239,5-5s-2.238-5-5-5h-92c-2.762,0-5,2.239-5,5S126.933,143.495,129.695,143.495z"/>
			<path d="M129.695,234.495h92c2.762,0,5-2.239,5-5s-2.238-5-5-5h-92c-2.762,0-5,2.239-5,5S126.933,234.495,129.695,234.495z"/>
			<path d="M75.934,142.285c2.452,2.111,6.27,1.376,7.732-1.554l21.5-43c1.235-2.47,0.234-5.473-2.235-6.708
				c-2.471-1.235-5.474-0.234-6.708,2.236L77.592,130.52l-16.637-14.315c-2.091-1.801-5.248-1.564-7.051,0.529
				c-1.801,2.093-1.564,5.25,0.529,7.051L75.934,142.285z"/>
			<path d="M75.934,233.285c2.452,2.111,6.27,1.376,7.732-1.554l21.5-43c1.235-2.47,0.234-5.473-2.235-6.708
				c-2.471-1.235-5.474-0.234-6.708,2.236L77.592,221.52l-16.637-14.315c-2.091-1.801-5.248-1.564-7.051,0.529
				c-1.801,2.093-1.564,5.25,0.529,7.051L75.934,233.285z"/>
		</g>
	</g>
</g>
<g>
</g>
<g>
</g>
<g>
</g>
<g>
</g>
<g>
</g>
<g>
</g>
<g>
</g>
<g>
</g>
<g>
</g>
<g>
</g>
<g>
</g>
<g>
</g>
<g>
</g>
<g>
</g>
<g>
</g>
</svg>
