<?xml version="1.0" encoding="iso-8859-1"?>
<!-- Generator: Adobe Illustrator 17.1.0, SVG Export Plug-In . SVG Version: 6.00 Build 0)  -->
<!DOCTYPE svg PUBLIC "-//W3C//DTD SVG 1.1//EN" "http://www.w3.org/Graphics/SVG/1.1/DTD/svg11.dtd">
<svg version="1.1" id="Capa_1" xmlns="http://www.w3.org/2000/svg" xmlns:xlink="http://www.w3.org/1999/xlink" x="0px" y="0px"
	 viewBox="0 0 292 292" style="enable-background:new 0 0 292 292;" xml:space="preserve">
<g>
	<path d="M89.415,70h113.761c11.028,0,19.786-8.712,19.786-19.74v-5.835c0-0.208,0.082-0.388,0.076-0.595
		C222.381,19.539,202.537,0,178.09,0H114.5C90.053,0,69.877,19.539,69.22,43.83c-0.006,0.207-0.258,0.386-0.258,0.595v5.835
		C68.962,61.288,78.387,70,89.415,70z"/>
	<path d="M222.962,119c0-11.046-8.954-20-20-20h-114c-11.046,0-20,8.954-20,20v153c0,11.046,8.954,20,20,20h114
		c11.046,0,20-8.954,20-20V119z M195.962,180.061c0,2.212-0.989,3.939-3.201,3.939h-4.799v11.456c0,2.381-1.483,4.548-3.64,5.56
		l-32.36,15.139v14.883c9,2.662,16,11.076,16,21.022c0,12.077-9.708,21.904-21.784,21.904c-12.08,0-21.942-9.827-21.942-21.904
		c0-9.946,6.726-18.359,15.726-21.022v-2.441l-32.36-15.139c-2.154-1.012-3.64-3.179-3.64-5.56v-14.501
		c-5-2.332-8.342-7.43-8.342-13.337c0-8.1,6.689-14.688,14.79-14.688s14.393,6.587,14.393,14.688c0,5.907-3.841,11.005-8.841,13.337
		v10.599l24,11.029V151h-9.302c-1.507,0-2.887-0.863-3.57-2.207c-0.683-1.341-0.558-2.962,0.328-4.182l15.637-21.53
		c0.754-1.038,1.959-1.653,3.242-1.653c1.28,0,2.485,0.612,3.239,1.65l15.637,21.525c0.887,1.221,1.012,2.851,0.328,4.191
		c-0.683,1.343-2.063,2.206-3.568,2.206h-9.971v51.583l24-11.029V184h-4.565c-2.211,0-4.435-1.727-4.435-3.939v-20.297
		c0-2.212,2.224-3.764,4.435-3.764h21.364c2.212,0,3.201,1.552,3.201,3.764V180.061z"/>
</g>
<g>
</g>
<g>
</g>
<g>
</g>
<g>
</g>
<g>
</g>
<g>
</g>
<g>
</g>
<g>
</g>
<g>
</g>
<g>
</g>
<g>
</g>
<g>
</g>
<g>
</g>
<g>
</g>
<g>
</g>
</svg>
